<svg xmlns="http://www.w3.org/2000/svg" width="80" height="80"><rect width="100%" height="100%" fill="#2e077f"/><path fill="#8576ff" d="m46.444 90.194-6.532-4.112-6.438 4.116 1.966-7.694-6.084-5.006 7.872-.36 3.04-7.336 2.684 7.156 7.692.624-5.992 5.01zm0-80-6.532-4.112-6.438 4.116 1.966-7.694-6.084-5.006 7.872-.36 3.04-7.336 2.684 7.156 7.692.624-5.992 5.01zm-40 40-6.532-4.112-6.438 4.116 1.966-7.694-6.084-5.006 7.872-.36 3.04-7.336 2.684 7.156 7.692.624-5.992 5.01zm80 0-6.532-4.112-6.438 4.116 1.966-7.694-6.084-5.006 7.872-.36 3.04-7.336 2.684 7.156 7.692.624-5.992 5.01z"/><path fill="#7bc9ff" d="m60.1 56.175-1.14 2.751-2.952.135 2.283 1.878-.739 2.886 2.416-1.545 2.448 1.543-.672-2.853 2.247-1.878-2.883-.234zm-40 0-1.14 2.751-2.952.135 2.283 1.878-.739 2.886 2.416-1.545 2.448 1.543-.672-2.853 2.247-1.878-2.883-.234zm40-40-1.14 2.751-2.952.135 2.283 1.878-.739 2.886 2.416-1.545 2.448 1.543-.672-2.852 2.247-1.878-2.883-.234zm-40 0-1.14 2.751-2.952.135 2.283 1.878-.739 2.886 2.416-1.545 2.448 1.543-.672-2.852 2.247-1.878-2.883-.234zm60 60-1.14 2.751-2.951.135 2.282 1.878-.739 2.886 2.416-1.545 2.448 1.543-.671-2.852 2.246-1.879-2.883-.233zm-80 0-1.14 2.751-2.951.135 2.282 1.878-.739 2.886 2.416-1.545 2.448 1.543-.671-2.852 2.247-1.879-2.884-.233zm80-80-1.14 2.751-2.951.135L78.29.939l-.739 2.886 2.416-1.545 2.448 1.543-.67-2.853L83.99-.908l-2.883-.234zm-80 0-1.14 2.751-2.951.135L-1.71.939l-.739 2.886L-.032 2.28l2.448 1.543L1.745.97 3.99-.907l-2.883-.234zm40 40-1.14 2.751-2.952.135 2.283 1.878-.739 2.886 2.416-1.545 2.448 1.543-.672-2.853 2.247-1.878-2.883-.234z"/><path fill="#a3ffd6" d="M12 70a2 2 0 0 1-2 2 2 2 0 0 1-2-2 2 2 0 0 1 2-2 2 2 0 0 1 2 2m60 0a2 2 0 0 1-2 2 2 2 0 0 1-2-2 2 2 0 0 1 2-2 2 2 0 0 1 2 2M12 10a2 2 0 0 1-2 2 2 2 0 0 1-2-2 2 2 0 0 1 2-2 2 2 0 0 1 2 2m60 0a2 2 0 0 1-2 2 2 2 0 0 1-2-2 2 2 0 0 1 2-2 2 2 0 0 1 2 2M32 30a2 2 0 0 1-2 2 2 2 0 0 1-2-2 2 2 0 0 1 2-2 2 2 0 0 1 2 2m0 20a2 2 0 0 1-2 2 2 2 0 0 1-2-2 2 2 0 0 1 2-2 2 2 0 0 1 2 2m20-20a2 2 0 0 1-2 2 2 2 0 0 1-2-2 2 2 0 0 1 2-2 2 2 0 0 1 2 2m0 20a2 2 0 0 1-2 2 2 2 0 0 1-2-2 2 2 0 0 1 2-2 2 2 0 0 1 2 2"/></svg>